%
M48
M72
T01C0.0118
T02C0.0236
T03C0.0320
T04C0.0394
T05C0.0400
T06C0.0433
T07C0.0492
T08C0.0984
%
T01
X3310Y4796
X3597Y5160
X2950Y5598
X3973Y5910
X4436Y5771
X4426Y5305
X4950Y6129
X4791Y7684
X5183Y8050
X5496Y7692
X5996Y7700
X6466Y7676
X6703Y7850
X6891Y8211
X6506Y8490
X6006Y8490
X5344Y9831
X4973Y9821
X5460Y10222
X5466Y10576
X5983Y10148
X6483Y10630
X6826Y10124
X6963Y9815
X7886Y10653
X8196Y11091
X8368Y10870
X8268Y10403
X7306Y11091
X7286Y11551
X6771Y12197
X6546Y12840
X6610Y13941
X6364Y14212
X6106Y14005
X6080Y14490
X5826Y14769
X5268Y14592
X4966Y14829
X5118Y15465
X5686Y15845
X5962Y16087
X6268Y15741
X6729Y15716
X7073Y15940
X7286Y16265
X7340Y16623
X7529Y16861
X6825Y16886
X6483Y17005
X6233Y16755
X6483Y16523
X6818Y16515
X6836Y17248
X6583Y17429
X6633Y18010
X6273Y18663
X7043Y18915
X7043Y19405
X7008Y20080
X8171Y20130
X8296Y20443
X8546Y20193
X8782Y20360
X8483Y19880
X8559Y19417
X8818Y18848
X8457Y18538
X8233Y18330
X9275Y19443
X9483Y19693
X9385Y19960
X9116Y19885
X9494Y20299
X9121Y21080
X8858Y20943
X9516Y21832
X9300Y22055
X9745Y22513
X9987Y22725
X10189Y22983
X10559Y22998
X10596Y23414
X10353Y23817
X9973Y23816
X9756Y23619
X9200Y23729
X9179Y23330
X8772Y23346
X8779Y23733
X8779Y24183
X9179Y24183
X9756Y24056
X10493Y24260
X12092Y24734
X12959Y24965
X12959Y25383
X13230Y26193
X12344Y26454
X12344Y26814
X12618Y27068
X11654Y27337
X11649Y27751
X11304Y28611
X11284Y29430
X12128Y29439
X12125Y28620
X13139Y28585
X13149Y29414
X14009Y29620
X15063Y29641
X16129Y29631
X16878Y28693
X17426Y28780
X17426Y29295
X18457Y29074
X19483Y29279
X19495Y28761
X20079Y28751
X20071Y29270
X21512Y29254
X21508Y28764
X22680Y28767
X22678Y28219
X22667Y27758
X22437Y27224
X22466Y26831
X21982Y27485
X21306Y26749
X20700Y26257
X20477Y26467
X20308Y27155
X19430Y27008
X19682Y26357
X19971Y25732
X19962Y25152
X19963Y24470
X20256Y23977
X20243Y23494
X20752Y23715
X20956Y23907
X20739Y24137
X21169Y24142
X21235Y23714
X20966Y23508
X20759Y23174
X20243Y22952
X21276Y21987
X21020Y21715
X20619Y21186
X21177Y20634
X21522Y20634
X21842Y20609
X21989Y21175
X21694Y21175
X22309Y21175
X22168Y21652
X22580Y21815
X21908Y22692
X22185Y22972
X22508Y23155
X22879Y23664
X23196Y23982
X22603Y24178
X22024Y23984
X21738Y24115
X21748Y23801
X21974Y25147
X22058Y25742
X22964Y25742
X22988Y25137
X23733Y25755
X24051Y26178
X24553Y26190
X24553Y26830
X24553Y27445
X24529Y28060
X24529Y28700
X24530Y29434
X25372Y28900
X25653Y29758
X25467Y27597
X25473Y26982
X25493Y26407
X25493Y25767
X25483Y25112
X25478Y24512
X24553Y25526
X23866Y26830
X23906Y27759
X23600Y28716
X22704Y29316
X23556Y30008
X21005Y25732
X20990Y25166
X19221Y25732
X18632Y25932
X17993Y25110
X18955Y24670
X18311Y23558
X18043Y23556
X18045Y23289
X18311Y23290
X18311Y23023
X18045Y23021
X18044Y22753
X18040Y22486
X18307Y22489
X18311Y22757
X18309Y22220
X18042Y22218
X17559Y22220
X17292Y22218
X17034Y22220
X16767Y22218
X16765Y22486
X16769Y22753
X17036Y22757
X17294Y22753
X17290Y22486
X17032Y22489
X17557Y22489
X17561Y22757
X17561Y23023
X17295Y23021
X17036Y23023
X16770Y23021
X16770Y23289
X17036Y23290
X17295Y23289
X17561Y23290
X17561Y23558
X17293Y23556
X17036Y23558
X16768Y23556
X14913Y22922
X14234Y22839
X14328Y22460
X13778Y23190
X12915Y23633
X12690Y23833
X12465Y23633
X12265Y23858
X12440Y23058
X12710Y22077
X12702Y21795
X12497Y21119
X12265Y20891
X12460Y20654
X12230Y20457
X12481Y20211
X13201Y20152
X13408Y19905
X13232Y20546
X13633Y20901
X13975Y21097
X13991Y20723
X13637Y21317
X14010Y21482
X15715Y20297
X15715Y20012
X15858Y19718
X14921Y19491
X14826Y19221
X14890Y18947
X14607Y18444
X14016Y17901
X13733Y17605
X13057Y16918
X12590Y16500
X12372Y17008
X11861Y16008
X11393Y15236
X10944Y14784
X11140Y14286
X10276Y13058
X10483Y12818
X10872Y12489
X11080Y12259
X11458Y12268
X11605Y12022
X11753Y11776
X11950Y11579
X12171Y11380
X12442Y11284
X12737Y11333
X12885Y11087
X13032Y10644
X12983Y10324
X12794Y10081
X12836Y9807
X12786Y9512
X13131Y9413
X13426Y9315
X13672Y9167
X13968Y9118
X14263Y9069
X14755Y9069
X15050Y9020
X14853Y8429
X15149Y8331
X15444Y8193
X15739Y8429
X16558Y7971
X16901Y7445
X17902Y7525
X17996Y7177
X18844Y7149
X19117Y7303
X18840Y7525
X19110Y6898
X20267Y7197
X20651Y7179
X20488Y6387
X20488Y6042
X21472Y5991
X22457Y5953
X22549Y6854
X22248Y8019
X22466Y8219
X22708Y8414
X22496Y8664
X22257Y8890
X22006Y8673
X21806Y8451
X22006Y8224
X21085Y8272
X21073Y8642
X20657Y8466
X20617Y8875
X20208Y8467
X20069Y9141
X20617Y9636
X20980Y10029
X21605Y10458
X22112Y10879
X22211Y11210
X22495Y10858
X22772Y11190
X23351Y10888
X23613Y10595
X23958Y10250
X24671Y10398
X24295Y11380
X23760Y11786
X23908Y12292
X22949Y13031
X22388Y12450
X22103Y12773
X21811Y12628
X21670Y12242
X21148Y12050
X21054Y11702
X20760Y11603
X20562Y11357
X20158Y10905
X19455Y10225
X19150Y9660
X18913Y9436
X19259Y9339
X18274Y9044
X18200Y8774
X18126Y8503
X17880Y8257
X17585Y8380
X16458Y9364
X16187Y9812
X16723Y10004
X17117Y10201
X17412Y10398
X17314Y10693
X17609Y10890
X17708Y11185
X17905Y11382
X18101Y11579
X18298Y11776
X18987Y12366
X19282Y12563
X19479Y12760
X19676Y13055
X19991Y13606
X20267Y13665
X20464Y13941
X20759Y14138
X21054Y14335
X21031Y14948
X21680Y14093
X22384Y14084
X21891Y15319
X22235Y16156
X23219Y16697
X23589Y16328
X23687Y17189
X23649Y17661
X23190Y18125
X22186Y18124
X21891Y18665
X22358Y18764
X22478Y19733
X22802Y20068
X21876Y19976
X20980Y19847
X20906Y19158
X20168Y18518
X19479Y19404
X19430Y19699
X17836Y18065
X17636Y18273
X17216Y18370
X16733Y18380
X16527Y18173
X16330Y17878
X16005Y18606
X16893Y19863
X17255Y19847
X18076Y17858
X18054Y17453
X18575Y16948
X18830Y16677
X19135Y16372
X19469Y16047
X19784Y15742
X20095Y15393
X19701Y14999
X19307Y14605
X19158Y14330
X18864Y14164
X18372Y13670
X17929Y13227
X17511Y12809
X17117Y12416
X16748Y12046
X16305Y11628
X15887Y11234
X15518Y10865
X15444Y10152
X14111Y11521
X13837Y11883
X13475Y12120
X13402Y12908
X13820Y13326
X14238Y13744
X14632Y14138
X15075Y14581
X15542Y15048
X15961Y15467
X16404Y15910
X16772Y16278
X16583Y16530
X17190Y16796
X17610Y17116
X17634Y17406
X15641Y17091
X15444Y16795
X15149Y16599
X14755Y16599
X14361Y16623
X14770Y16200
X14361Y15811
X13970Y15956
X13699Y16035
X14066Y15516
X13869Y15221
X13574Y15024
X12997Y15183
X12983Y14728
X12885Y14433
X12786Y14138
X12590Y13843
X12442Y13547
X11507Y12563
X10142Y12215
X10233Y11255
X11060Y10739
X11493Y10790
X11789Y11038
X12996Y9082
X13066Y7904
X14066Y7681
X14850Y7679
X12921Y5443
X12403Y5193
X12043Y4802
X11389Y4786
X11388Y4240
X10822Y4210
X10789Y3582
X11380Y3592
X10134Y3582
X9485Y5132
X10104Y5473
X10775Y7096
X11131Y7556
X11719Y7175
X10125Y7577
X9936Y7343
X9946Y8068
X9803Y8803
X9963Y9274
X8915Y8434
X8134Y8535
X7415Y8583
X8094Y7572
X8747Y7065
X7854Y5607
X8109Y5473
X6970Y6141
X8483Y3380
X3705Y8408
X3097Y8432
X2608Y8443
X3103Y9141
X2798Y10398
X3170Y11332
X3313Y11706
X3740Y11342
X4280Y11337
X4233Y11700
X5046Y12318
X4858Y12630
X4003Y13380
X3451Y13206
X3451Y12894
X2759Y14513
X2343Y14450
X2983Y15181
X2899Y15543
X2502Y16256
X1689Y15543
X1447Y14398
X1059Y14398
X722Y14398
X2459Y17132
X3328Y17149
X3785Y17272
X3795Y17851
X4962Y17730
X4927Y17442
X4986Y18050
X3784Y19339
X3784Y20414
X3541Y20742
X4359Y20514
X4700Y20464
X4983Y21405
X4400Y21569
X5036Y22375
X4883Y22606
X4712Y22825
X4577Y23344
X3933Y23105
X3877Y23415
X3935Y24272
X4296Y24630
X3878Y25109
X4548Y25519
X5975Y25156
X6354Y24144
X6724Y23774
X6394Y23439
X6953Y23050
X7103Y22800
X6865Y22574
X6548Y22477
X6448Y22080
X7501Y22005
X7556Y22298
X7671Y22568
X7796Y22818
X8272Y23096
X8184Y23844
X8184Y24194
X7508Y24180
X7353Y24460
X7629Y23496
X8971Y25137
X8421Y27255
X7946Y27609
X7042Y27609
X7043Y27230
X7108Y28005
X6108Y28005
X6065Y27606
X6081Y27231
X6086Y26850
X5171Y28005
X4536Y27738
X3609Y29082
X3440Y29822
X2208Y29446
X1363Y28961
X791Y28972
X780Y29632
X810Y28132
X1330Y28112
X2385Y28126
X2474Y23864
X5292Y23374
X2483Y20125
X3793Y15653
X3613Y15020
X3956Y14688
X5546Y14255
X7053Y14655
X7324Y14409
X7601Y14687
X7593Y13829
X7983Y13847
X8713Y13068
X8858Y12825
X9222Y13767
X9572Y14117
X9802Y14377
X9440Y15319
X9844Y15452
X10032Y15632
X9346Y16388
X9041Y16715
X9266Y17036
X9527Y17166
X9499Y17532
X9822Y17500
X10113Y17533
X10313Y18010
X10833Y17880
X10487Y18543
X10707Y18762
X10973Y18650
X10480Y19398
X10233Y19255
X10059Y18792
X11655Y19523
X11650Y19817
X10465Y21006
X10383Y21305
X10532Y21570
X10784Y21304
X10805Y21856
X10486Y22565
X10054Y22144
X11921Y25947
X11279Y26551
X10810Y27014
X9807Y27350
X9787Y27790
X9286Y27821
X9787Y28379
X10287Y28610
X10286Y29429
X13488Y27768
X14088Y27593
X14562Y28089
X15052Y27849
X15574Y28059
X16349Y27555
X16158Y26968
X16051Y26613
X15483Y26603
X14608Y26366
X14260Y26678
X13968Y25358
X13968Y24940
X14976Y24915
X14976Y25358
X17265Y27068
X17293Y27375
X17316Y27712
X17583Y27068
X18465Y27018
X23894Y21165
X23825Y19158
X24996Y17652
X26030Y19089
X26010Y19974
X26664Y20634
X27033Y20314
X27487Y20336
X27033Y20978
X27033Y21643
X27034Y22283
X27034Y22922
X27451Y23137
X27992Y21705
X28918Y20890
X25968Y15219
X25951Y14650
X26630Y14226
X26935Y14015
X27501Y14039
X28067Y13129
X28343Y12730
X27468Y12130
X27458Y11628
X27453Y11136
X26679Y11116
X26679Y11795
X26661Y12364
X26172Y13114
X26148Y13646
X24986Y13793
X22993Y10545
X23416Y8774
X23416Y8429
X23416Y8036
X24200Y7427
X24956Y8392
X25975Y8257
X26246Y7912
X26354Y7519
X26408Y6810
X26010Y6825
X25961Y6274
X26428Y6264
X25843Y5660
X25542Y6269
X25167Y6269
X24808Y6257
X24219Y5933
X23608Y5568
X23858Y5318
X23441Y5922
X25547Y6825
X27452Y5058
X26204Y4136
X26474Y3326
X24474Y3336
X23483Y3331
X20490Y3401
X20094Y3886
X19805Y3415
X19454Y3916
X19437Y4478
X20084Y4503
X18739Y4503
X18431Y5038
X18108Y5265
X18368Y5545
X18789Y3926
X19091Y3426
X18474Y3385
X17490Y3385
X16487Y3380
X15984Y4126
X14504Y3314
X19452Y12240
X20599Y16608
X14805Y17067
X12710Y18164
X8824Y15481
X8590Y15703
X8296Y16000
X7781Y15711
X7226Y13808
X1685Y11220
X726Y10016
X707Y9597
X1796Y8443
X1796Y8068
X2685Y7364
X2656Y6842
X1780Y6850
X29150Y11480
X29469Y4172
T02
X9637Y25924
T03
X9483Y25130
X8483Y25130
X7483Y25130
X6483Y25130
X5483Y25130
X10483Y25130
X12483Y25130
X13483Y25130
X14483Y25130
X15483Y25130
X16483Y25130
X17483Y25130
X18483Y25130
X19483Y25130
X20483Y25130
X21483Y25130
X22483Y25130
X23483Y25130
X22983Y30630
X21983Y30630
X23983Y30630
X24983Y30630
X25983Y30630
X26983Y30630
X8983Y30630
X7983Y30630
X6983Y30630
X5983Y30630
X4983Y30630
X3983Y30630
X5483Y6130
X6483Y6130
X7483Y6130
X8483Y6130
X9483Y6130
X10483Y6130
X11483Y6130
X12483Y6130
X13983Y6130
X14983Y6130
X15983Y6130
X16983Y6130
X17983Y6130
X18983Y6130
X19983Y6130
X20983Y6130
X21983Y6130
X22983Y6130
T04
X24483Y7880
X24483Y8880
X24483Y9880
X24483Y10880
X24483Y11880
X24483Y12880
X24483Y13880
X24483Y14880
X24483Y15880
X24483Y16880
X24483Y17880
X24483Y18880
X24483Y19880
X24483Y20880
X24483Y21880
X24483Y22880
X24483Y23880
X25483Y23880
X25483Y22880
X25483Y21880
X25483Y20880
X25483Y19880
X25483Y18880
X25483Y17880
X25483Y16880
X25483Y15880
X25483Y14880
X25483Y13880
X25483Y12880
X25483Y11880
X25483Y10880
X25483Y9880
X25483Y8880
X25483Y7880
T05
X26983Y7630
X26983Y6630
X26983Y5630
X26983Y4630
X25983Y4630
X24983Y4630
X24983Y3630
X25983Y3630
X26983Y3630
X27983Y5630
X27983Y6630
X27983Y7630
X27983Y8630
X26983Y8630
X26983Y9630
X26983Y10630
X27983Y10630
X27983Y9630
X27983Y14630
X26983Y14630
X26983Y15630
X26983Y16630
X26983Y17630
X26983Y18630
X26983Y19630
X27983Y19630
X27983Y18630
X27983Y17630
X27983Y16630
X27983Y15630
X27983Y23630
X26983Y23630
X26983Y24630
X26983Y25630
X26983Y26630
X26983Y27630
X26983Y28630
X27983Y28630
X27983Y27630
X27983Y26630
X27983Y25630
X27983Y24630
X23983Y4630
X22983Y4630
X21983Y4630
X21983Y3630
X22983Y3630
X23983Y3630
X17983Y3630
X16983Y3630
X15983Y3630
X14983Y3630
X13983Y3630
X12983Y3630
X12983Y4630
X13983Y4630
X14983Y4630
X15983Y4630
X16983Y4630
X17983Y4630
X8983Y4630
X7983Y4630
X6983Y4630
X6983Y3630
X7983Y3630
X8983Y3630
X5983Y3630
X4983Y3630
X3983Y3630
X3983Y4630
X4983Y4630
X5983Y4630
X2983Y16630
X1983Y16630
X1983Y17630
X1983Y18630
X1983Y19630
X1983Y20630
X1983Y21630
X1983Y22630
X1983Y23630
X1983Y24630
X1983Y25630
X1983Y26630
X1983Y27630
X1983Y28630
X2983Y28630
X2983Y27630
X2983Y26630
X2983Y25630
X2983Y24630
X2983Y23630
X2983Y22630
X2983Y21630
X2983Y20630
X2983Y19630
X2983Y18630
X2983Y17630
T06
X1149Y13729
X1149Y11131
X1171Y8929
X1171Y6331
T07
X13554Y30339
X16704Y30339
T08
X1664Y3508
X1664Y30476
X28830Y30476
X28830Y3311
M30
