G75*
%MOIN*%
%OFA0B0*%
%FSLAX24Y24*%
%IPPOS*%
%LPD*%
%AMOC8*
5,1,8,0,0,1.08239X$1,22.5*
%
%ADD10R,0.0550X0.0200*%
%ADD11C,0.0591*%
%ADD12C,0.1500*%
%ADD13OC8,0.0600*%
%ADD14C,0.0480*%
%ADD15C,0.0650*%
%ADD16R,0.0551X0.0787*%
%ADD17R,0.0504X0.0551*%
%ADD18R,0.0768X0.0551*%
%ADD19R,0.0276X0.0551*%
%ADD20C,0.0492*%
%ADD21C,0.0354*%
D10*
G36*
X012602Y013526D02*
X012990Y013138D01*
X012848Y012996D01*
X012460Y013384D01*
X012602Y013526D01*
G37*
G36*
X012828Y013752D02*
X013216Y013364D01*
X013074Y013222D01*
X012686Y013610D01*
X012828Y013752D01*
G37*
G36*
X013047Y013971D02*
X013435Y013583D01*
X013293Y013441D01*
X012905Y013829D01*
X013047Y013971D01*
G37*
G36*
X013273Y014198D02*
X013661Y013810D01*
X013519Y013668D01*
X013131Y014056D01*
X013273Y014198D01*
G37*
G36*
X013492Y014417D02*
X013880Y014029D01*
X013738Y013887D01*
X013350Y014275D01*
X013492Y014417D01*
G37*
G36*
X013719Y014643D02*
X014107Y014255D01*
X013965Y014113D01*
X013577Y014501D01*
X013719Y014643D01*
G37*
G36*
X013938Y014862D02*
X014326Y014474D01*
X014184Y014332D01*
X013796Y014720D01*
X013938Y014862D01*
G37*
G36*
X014164Y015089D02*
X014552Y014701D01*
X014410Y014559D01*
X014022Y014947D01*
X014164Y015089D01*
G37*
G36*
X014383Y015308D02*
X014771Y014920D01*
X014629Y014778D01*
X014241Y015166D01*
X014383Y015308D01*
G37*
G36*
X014610Y015534D02*
X014998Y015146D01*
X014856Y015004D01*
X014468Y015392D01*
X014610Y015534D01*
G37*
G36*
X014829Y015753D02*
X015217Y015365D01*
X015075Y015223D01*
X014687Y015611D01*
X014829Y015753D01*
G37*
G36*
X015055Y015979D02*
X015443Y015591D01*
X015301Y015449D01*
X014913Y015837D01*
X015055Y015979D01*
G37*
G36*
X015274Y016199D02*
X015662Y015811D01*
X015520Y015669D01*
X015132Y016057D01*
X015274Y016199D01*
G37*
G36*
X015501Y016425D02*
X015889Y016037D01*
X015747Y015895D01*
X015359Y016283D01*
X015501Y016425D01*
G37*
G36*
X015720Y016644D02*
X016108Y016256D01*
X015966Y016114D01*
X015578Y016502D01*
X015720Y016644D01*
G37*
G36*
X015946Y016870D02*
X016334Y016482D01*
X016192Y016340D01*
X015804Y016728D01*
X015946Y016870D01*
G37*
G36*
X016165Y017090D02*
X016553Y016702D01*
X016411Y016560D01*
X016023Y016948D01*
X016165Y017090D01*
G37*
G36*
X016392Y017316D02*
X016780Y016928D01*
X016638Y016786D01*
X016250Y017174D01*
X016392Y017316D01*
G37*
G36*
X016611Y017535D02*
X016999Y017147D01*
X016857Y017005D01*
X016469Y017393D01*
X016611Y017535D01*
G37*
G36*
X016837Y017761D02*
X017225Y017373D01*
X017083Y017231D01*
X016695Y017619D01*
X016837Y017761D01*
G37*
G36*
X017056Y017981D02*
X017444Y017593D01*
X017302Y017451D01*
X016914Y017839D01*
X017056Y017981D01*
G37*
G36*
X017283Y018207D02*
X017671Y017819D01*
X017529Y017677D01*
X017141Y018065D01*
X017283Y018207D01*
G37*
G36*
X020422Y015067D02*
X020810Y014679D01*
X020668Y014537D01*
X020280Y014925D01*
X020422Y015067D01*
G37*
G36*
X020196Y014841D02*
X020584Y014453D01*
X020442Y014311D01*
X020054Y014699D01*
X020196Y014841D01*
G37*
G36*
X019977Y014622D02*
X020365Y014234D01*
X020223Y014092D01*
X019835Y014480D01*
X019977Y014622D01*
G37*
G36*
X019750Y014396D02*
X020138Y014008D01*
X019996Y013866D01*
X019608Y014254D01*
X019750Y014396D01*
G37*
G36*
X019531Y014176D02*
X019919Y013788D01*
X019777Y013646D01*
X019389Y014034D01*
X019531Y014176D01*
G37*
G36*
X019305Y013950D02*
X019693Y013562D01*
X019551Y013420D01*
X019163Y013808D01*
X019305Y013950D01*
G37*
G36*
X019086Y013731D02*
X019474Y013343D01*
X019332Y013201D01*
X018944Y013589D01*
X019086Y013731D01*
G37*
G36*
X018859Y013505D02*
X019247Y013117D01*
X019105Y012975D01*
X018717Y013363D01*
X018859Y013505D01*
G37*
G36*
X018640Y013285D02*
X019028Y012897D01*
X018886Y012755D01*
X018498Y013143D01*
X018640Y013285D01*
G37*
G36*
X018414Y013059D02*
X018802Y012671D01*
X018660Y012529D01*
X018272Y012917D01*
X018414Y013059D01*
G37*
G36*
X018195Y012840D02*
X018583Y012452D01*
X018441Y012310D01*
X018053Y012698D01*
X018195Y012840D01*
G37*
G36*
X017968Y012614D02*
X018356Y012226D01*
X018214Y012084D01*
X017826Y012472D01*
X017968Y012614D01*
G37*
G36*
X017749Y012394D02*
X018137Y012006D01*
X017995Y011864D01*
X017607Y012252D01*
X017749Y012394D01*
G37*
G36*
X017523Y012168D02*
X017911Y011780D01*
X017769Y011638D01*
X017381Y012026D01*
X017523Y012168D01*
G37*
G36*
X017304Y011949D02*
X017692Y011561D01*
X017550Y011419D01*
X017162Y011807D01*
X017304Y011949D01*
G37*
G36*
X017078Y011723D02*
X017466Y011335D01*
X017324Y011193D01*
X016936Y011581D01*
X017078Y011723D01*
G37*
G36*
X016858Y011504D02*
X017246Y011116D01*
X017104Y010974D01*
X016716Y011362D01*
X016858Y011504D01*
G37*
G36*
X016632Y011277D02*
X017020Y010889D01*
X016878Y010747D01*
X016490Y011135D01*
X016632Y011277D01*
G37*
G36*
X016413Y011058D02*
X016801Y010670D01*
X016659Y010528D01*
X016271Y010916D01*
X016413Y011058D01*
G37*
G36*
X016187Y010832D02*
X016575Y010444D01*
X016433Y010302D01*
X016045Y010690D01*
X016187Y010832D01*
G37*
G36*
X015967Y010613D02*
X016355Y010225D01*
X016213Y010083D01*
X015825Y010471D01*
X015967Y010613D01*
G37*
G36*
X015741Y010386D02*
X016129Y009998D01*
X015987Y009856D01*
X015599Y010244D01*
X015741Y010386D01*
G37*
D11*
X024483Y010880D03*
X024483Y009880D03*
X024483Y008880D03*
X024483Y007880D03*
X025483Y007880D03*
X025483Y008880D03*
X025483Y009880D03*
X025483Y010880D03*
X025483Y011880D03*
X024483Y011880D03*
X024483Y012880D03*
X024483Y013880D03*
X024483Y014880D03*
X024483Y015880D03*
X024483Y016880D03*
X024483Y017880D03*
X024483Y018880D03*
X024483Y019880D03*
X024483Y020880D03*
X024483Y021880D03*
X024483Y022880D03*
X024483Y023880D03*
X025483Y023880D03*
X025483Y022880D03*
X025483Y021880D03*
X025483Y020880D03*
X025483Y019880D03*
X025483Y018880D03*
X025483Y017880D03*
X025483Y016880D03*
X025483Y015880D03*
X025483Y014880D03*
X025483Y013880D03*
X025483Y012880D03*
D12*
X001664Y003508D03*
X001664Y030476D03*
X028830Y030476D03*
X028830Y003311D03*
D13*
X026983Y003630D03*
X025983Y003630D03*
X024983Y003630D03*
X024983Y004630D03*
X025983Y004630D03*
X026983Y004630D03*
X026983Y005630D03*
X026983Y006630D03*
X026983Y007630D03*
X026983Y008630D03*
X026983Y009630D03*
X026983Y010630D03*
X027983Y010630D03*
X027983Y009630D03*
X027983Y008630D03*
X027983Y007630D03*
X027983Y006630D03*
X027983Y005630D03*
X023983Y004630D03*
X022983Y004630D03*
X021983Y004630D03*
X021983Y003630D03*
X022983Y003630D03*
X023983Y003630D03*
X017983Y003630D03*
X016983Y003630D03*
X015983Y003630D03*
X014983Y003630D03*
X013983Y003630D03*
X012983Y003630D03*
X012983Y004630D03*
X013983Y004630D03*
X014983Y004630D03*
X015983Y004630D03*
X016983Y004630D03*
X017983Y004630D03*
X008983Y004630D03*
X007983Y004630D03*
X006983Y004630D03*
X006983Y003630D03*
X007983Y003630D03*
X008983Y003630D03*
X005983Y003630D03*
X004983Y003630D03*
X003983Y003630D03*
X003983Y004630D03*
X004983Y004630D03*
X005983Y004630D03*
X002983Y016630D03*
X001983Y016630D03*
X001983Y017630D03*
X001983Y018630D03*
X001983Y019630D03*
X001983Y020630D03*
X001983Y021630D03*
X001983Y022630D03*
X001983Y023630D03*
X001983Y024630D03*
X001983Y025630D03*
X001983Y026630D03*
X001983Y027630D03*
X001983Y028630D03*
X002983Y028630D03*
X002983Y027630D03*
X002983Y026630D03*
X002983Y025630D03*
X002983Y024630D03*
X002983Y023630D03*
X002983Y022630D03*
X002983Y021630D03*
X002983Y020630D03*
X002983Y019630D03*
X002983Y018630D03*
X002983Y017630D03*
X026983Y017630D03*
X026983Y016630D03*
X026983Y015630D03*
X026983Y014630D03*
X027983Y014630D03*
X027983Y015630D03*
X027983Y016630D03*
X027983Y017630D03*
X027983Y018630D03*
X026983Y018630D03*
X026983Y019630D03*
X027983Y019630D03*
X027983Y023630D03*
X026983Y023630D03*
X026983Y024630D03*
X026983Y025630D03*
X026983Y026630D03*
X026983Y027630D03*
X026983Y028630D03*
X027983Y028630D03*
X027983Y027630D03*
X027983Y026630D03*
X027983Y025630D03*
X027983Y024630D03*
D14*
X023483Y024890D02*
X023483Y025370D01*
X022483Y025370D02*
X022483Y024890D01*
X021483Y024890D02*
X021483Y025370D01*
X020483Y025370D02*
X020483Y024890D01*
X019483Y024890D02*
X019483Y025370D01*
X018483Y025370D02*
X018483Y024890D01*
X017483Y024890D02*
X017483Y025370D01*
X016483Y025370D02*
X016483Y024890D01*
X015483Y024890D02*
X015483Y025370D01*
X014483Y025370D02*
X014483Y024890D01*
X013483Y024890D02*
X013483Y025370D01*
X012483Y025370D02*
X012483Y024890D01*
X010483Y024890D02*
X010483Y025370D01*
X009483Y025370D02*
X009483Y024890D01*
X008483Y024890D02*
X008483Y025370D01*
X007483Y025370D02*
X007483Y024890D01*
X006483Y024890D02*
X006483Y025370D01*
X005483Y025370D02*
X005483Y024890D01*
X004983Y030390D02*
X004983Y030870D01*
X003983Y030870D02*
X003983Y030390D01*
X005983Y030390D02*
X005983Y030870D01*
X006983Y030870D02*
X006983Y030390D01*
X007983Y030390D02*
X007983Y030870D01*
X008983Y030870D02*
X008983Y030390D01*
X021983Y030390D02*
X021983Y030870D01*
X022983Y030870D02*
X022983Y030390D01*
X023983Y030390D02*
X023983Y030870D01*
X024983Y030870D02*
X024983Y030390D01*
X025983Y030390D02*
X025983Y030870D01*
X026983Y030870D02*
X026983Y030390D01*
X022983Y006370D02*
X022983Y005890D01*
X021983Y005890D02*
X021983Y006370D01*
X020983Y006370D02*
X020983Y005890D01*
X019983Y005890D02*
X019983Y006370D01*
X018983Y006370D02*
X018983Y005890D01*
X017983Y005890D02*
X017983Y006370D01*
X016983Y006370D02*
X016983Y005890D01*
X015983Y005890D02*
X015983Y006370D01*
X014983Y006370D02*
X014983Y005890D01*
X013983Y005890D02*
X013983Y006370D01*
X012483Y006370D02*
X012483Y005890D01*
X011483Y005890D02*
X011483Y006370D01*
X010483Y006370D02*
X010483Y005890D01*
X009483Y005890D02*
X009483Y006370D01*
X008483Y006370D02*
X008483Y005890D01*
X007483Y005890D02*
X007483Y006370D01*
X006483Y006370D02*
X006483Y005890D01*
X005483Y005890D02*
X005483Y006370D01*
D15*
X001171Y006331D03*
X001171Y008929D03*
X001149Y011131D03*
X001149Y013729D03*
D16*
X012373Y030181D03*
X018594Y030181D03*
D17*
X012349Y026402D03*
D18*
X018249Y026402D03*
D19*
X016349Y026059D03*
X015916Y026059D03*
X015483Y026059D03*
X015050Y026059D03*
X014617Y026059D03*
X014184Y026059D03*
X013751Y026059D03*
X013318Y026059D03*
X012885Y026059D03*
D20*
X013554Y030339D03*
X016704Y030339D03*
D21*
X009637Y025924D03*
M02*
